# xmcd
#
# Track frame offsets:
#	150
#	34715
#	55720
#	86832
#	121667
#	142540
#	162885
#	193857
#	215917
#	235055
#
# Disc length: 3338 seconds
#
# Revision: 3
# Processed by: cddbd v1.5.2PL0 Copyright (c) Steve Scherf et al.
# Submitted via: EZCDAudioConverter 8.0.2.1
#
DISCID=800d080a
DTITLE=Various Artist - Nhạc Tiền Chiến 1
DYEAR=1998
DGENRE=Contemporary Pop
TTITLE0=Khánh Hà - Gọi giấc mơ xưa
TTITLE1=Lệ Thu, Khánh Ly - Tiếng thu
TTITLE2=Tuấn Ngọc - Tiễn em
TTITLE3=Khánh Hà - Lá thư
TTITLE4=Tuấn Ngọc - Chuyển bến
TTITLE5=Khánh Hà - Thuyền viễn xứ
TTITLE6=Khánh Hà - Giọt mưa thu
TTITLE7=Tuấn Ngọc - Lá đổ mưa chiều
TTITLE8=Khánh Hà - Mơ hoa
TTITLE9=Tuấn Ngọc - Trở về bến mơ
EXTD=
EXTT0=
EXTT1=
EXTT2=
EXTT3=
EXTT4=
EXTT5=
EXTT6=
EXTT7=
EXTT8=
EXTT9=
PLAYORDER=
